<svg id="Layer_1" data-name="Layer 1" xmlns="http://www.w3.org/2000/svg" viewBox="0 0 71.7 56.5"><defs><style>.cls-1,.cls-3{fill:#fff;}.cls-2{fill:#f2c65e;}.cls-3{isolation:isolate;font-size:6.53px;font-family:BrownStd-Regular, BrownStd;}</style></defs><title>PH New Y_W Logo Header Laptop Desktop 93x57</title><path class="cls-1" d="M30.85,44.23A6,6,0,0,0,24.67,50v.4a6,6,0,0,0,5.72,6.25h.46A6,6,0,0,0,37,50.89c0-.16,0-.31,0-.46a6,6,0,0,0-5.73-6.25h-.45m0,10.63a4,4,0,0,1-4-4,2.68,2.68,0,0,1,0-.4,4,4,0,1,1,4.39,4.35,2.82,2.82,0,0,1-.41,0" transform="translate(-10.63 -0.25)"/><polygon class="cls-1" points="39.25 44.19 35.9 52.27 32.55 44.19 29.7 44.19 29.7 56.28 31.82 56.28 31.82 47.31 35.53 56.28 36.27 56.28 39.98 47.31 39.98 56.28 42.11 56.28 42.11 44.19 39.25 44.19"/><polygon class="cls-1" points="8.64 49.13 2.15 49.13 2.15 44.19 0.03 44.19 0.03 56.28 2.15 56.28 2.15 51.01 8.64 51.01 8.64 56.28 10.75 56.28 10.75 44.19 8.64 44.19 8.64 49.13"/><polygon class="cls-1" points="46.72 56.28 55 56.28 55 54.41 48.83 54.41 48.83 51.06 54.87 51.06 54.87 49.18 48.83 49.18 48.83 46.05 55 46.05 55 44.19 46.72 44.19 46.72 56.28"/><path class="cls-1" d="M72.22,47.64c0-.91.8-1.51,2-1.51a5,5,0,0,1,3.5,1.33L79,45.88a6.29,6.29,0,0,0-4.57-1.63c-2.66,0-4.41,1.54-4.41,3.53,0,4.47,7,2.89,7,5.42,0,.8-.69,1.65-2.43,1.65a5.3,5.3,0,0,1-3.82-1.66l-1.17,1.62a6.43,6.43,0,0,0,4.9,1.93c3.27,0,4.68-1.73,4.68-3.74,0-4.51-7-3.12-7-5.31" transform="translate(-10.63 -0.25)"/><path class="cls-1" d="M28.32,27.15a7.2,7.2,0,0,0-7.78-7.47H10.63V42.89h4.93V34.6h5a7.25,7.25,0,0,0,7.75-6.71,6.15,6.15,0,0,0,0-.74m-8.36,3.12H15.59V24h4.34a3.14,3.14,0,0,1,.41,6.26,2.81,2.81,0,0,1-.41,0" transform="translate(-10.63 -0.25)"/><path class="cls-1" d="M40.33,25.29V37a5.17,5.17,0,0,1-3.59,2.29c-1.75,0-2.66-1-2.66-3v-11H29.59V37.52c0,3.46,1.94,5.78,5.48,5.78a8,8,0,0,0,5.31-1.88v1.47h4.56V25.29Z" transform="translate(-10.63 -0.25)"/><path class="cls-1" d="M78.57,27.72a7.8,7.8,0,0,0-6.06-2.66,8.69,8.69,0,0,0-8.65,8.73c0,.13,0,.26,0,.39A8.65,8.65,0,0,0,72,43.32a6.94,6.94,0,0,0,.79,0,10.08,10.08,0,0,0,6.94-2.42h0l-2-3v.07a6.79,6.79,0,0,1-4.38,1.68,4.44,4.44,0,0,1-4.71-3.88H81V34.68a10.3,10.3,0,0,0-2.31-6.92m-2,4.78H68.5a4,4,0,0,1,4-3.71,3.88,3.88,0,0,1,4,3.71" transform="translate(-10.63 -0.25)"/><polygon class="cls-1" points="37.58 18.26 37.58 42.65 42.11 42.65 42.11 16.14 37.58 18.26"/><path class="cls-1" d="M63.24,38.83a2.51,2.51,0,0,1-1.45.43c-.89,0-1.48-.7-1.48-1.78V29.26h3.23v-4H60.31V20l-4.5-2.09v20.8c0,3,1.7,4.63,4.81,4.63a5.65,5.65,0,0,0,3.65-1Z" transform="translate(-10.63 -0.25)"/><polygon class="cls-1" points="58.01 16.55 58.01 11.58 53.48 11.58 53.48 14.42 42.12 9.11 18.96 19.94 18.96 23.61 42.12 12.78 68.83 25.29 68.83 21.63 58.01 16.55"/><path class="cls-2" d="M52.75,9.35,64.1,14.67V11.89h4.53v5l6.35,3v-.27a19.24,19.24,0,0,0-38.31-2.66L49.8,10.78Z" transform="translate(-10.63 -0.25)"/><text class="cls-3" transform="translate(66.19 20.08)">™</text></svg>